<?xml version="1.0" encoding="UTF-8"?>
<svg id="Logo" xmlns="http://www.w3.org/2000/svg" viewBox="0 0 315.63155 58.90404">
  <g>
    <g id="Group_507" data-name="Group 507">
      <path id="Path_340" data-name="Path 340" d="m29.64246,58.90404c-6.4,0-12.6-2.1-17.8-5.9-3.3-2.4-6-5.5-8-9.1-1.9-3.3-3.2-7-3.6-10.8-.8-6.1.4-12.3,3.3-17.7,1.9-3.5,4.6-6.7,7.8-9.1C23.44245-3.19596,40.74246-1.79596,51.34246,9.40404c5.7,6.1,8.6,14.3,7.9,22.6-.5,6.4-3.1,12.4-7.4,17.2-2.3,2.5-4.9,4.6-7.9,6.2-2.5,1.3-5.2,2.3-8.1,2.9-2.1.4-4.2.60001-6.2.60001Z" style="fill: #781e19; stroke-width: 0px;"/>
      <path id="Path_342" data-name="Path 342" d="m29.94245,58.90404h0c.2,0,.3-.1.5,0h-.5Z" style="fill: #a06c6a; stroke-width: 0px;"/>
      <path id="Path_343" data-name="Path 343" d="m29.14246,58.90404h-.4c.1-.1.3,0,.4,0Z" style="fill: #a77775; stroke-width: 0px;"/>
      <path id="Path_344" data-name="Path 344" d="m30.94245,58.90404h-.3c.1-.1.2,0,.3,0Z" style="fill: #d4bbb9; stroke-width: 0px;"/>
      <path id="Path_345" data-name="Path 345" d="m29.64246,52.50404c-5,0-9.8-1.6-13.8-4.6-2.6-1.9-4.7-4.3-6.3-7.1-1.5-2.6-2.5-5.5-2.8-8.5-.6-4.8.3-9.6,2.6-13.8,1.5-2.8,3.6-5.2,6-7.1,9.5-7.4,23-6.4,31.2,2.4,4.5,4.7,6.7,11.1,6.1,17.6-.4,5-2.4,9.7-5.8,13.4-1.8,2-3.9,3.6-6.2,4.9-2,1.1-4.1,1.8-6.3,2.3-1.5.29999-3.09999.49998-4.7.49998Z" style="fill: #fff; stroke-width: 0px;"/>
      <path id="Path_346" data-name="Path 346" d="m32.34246,55.10403q0-.4.4-.5c-.1-.2-.2-.4-.5-.3-.2.1-.4,0-.4-.2-.2-.3-.4-.5-.7-.8-.2-.2-.5-.3-.8-.4-.4-.1-.8.2-.9.6v.3c0,.2.1.3.2.5-1.5,0-3-.1-4.5-.4.1.2.1.4.3.4q.4.1.3.5v.1c-.1.2,0,.5-.2.6s-.4-.1-.6-.1-.2-.1-.2-.2c0-.2.1-.4.1-.7.1-.4-.1-.8-.3-1s-.5-.2-.7,0c0,.1-.1.1-.2.1-.2-.1-.4-.1-.6-.2-.1,0-.1-.1-.1-.1-.1-.5-.3-1-.6-1.4-.2-.3-.5-.4-.8-.5s-.7.2-.8.5c-.1.2-.1.5-.1.7-.4-.2-.8-.3-1.2-.5q-.1-.1-.1-.2c0-.4-.1-.9-.3-1.2-.1-.2-.2-.4-.4-.6-.3-.3-.8-.3-1.1,0-.1.1-.2.2-.2.3-.1.2-.1.3-.1.5l-.7-.40001c0,.3,0,.5.3.6.1,0,.1.1.1.2-.4.6-.7,1.2-1.1,1.8-.1.1-.1.2,0,.3s.2.2.2.3l1.3-2.2c.2.2.5.3.8.4.1,0,.2.1.1.2,0,.2-.1.4-.3.6-.1.1-.3.2-.3-.1,0-.1-.1-.2-.2-.2s-.2.1-.2.2v.3c.1.6.2,1.1.4,1.7,0,.1.1.1.2.1s.2-.1.1-.2c-.2-.2-.3-.5-.3-.8-.1-.2-.1-.3.2-.3.1,0,.2-.1.3-.2s.1-.1.2,0c.1.3.4.6.8.7-.1.2-.2.5-.3.7-.1.1-.1.2,0,.3s.1.2.2.3l.9-1.9c0-.1.1-.2.2-.3.1-.1.2.1.4.1s.2.1.1.2c-.2.5-.4,1.1-.6,1.6-.2.3-.1.6.2.8,0,0,0-.1.1-.1.2-.6.5-1.3.7-1.9.1-.1.1-.3.2-.3.1-.1.2.1.3.1.6.2,1.2.4,1.8.5.2.1.1.2.1.2,0,0-.1.2-.2.2-.2-.1-.3-.1-.5-.2-.3-.1-.5-.1-.8.1-.2.2-.2.5,0,.7q0,.1-.1.2c-.1.1-.3,0-.3-.1-.1-.1,0-.2.1-.3q.1-.1,0-.2c-.1-.1-.1-.2-.2-.2,0-.1-.1-.1-.1-.1-.2.1-.4.4-.3.6v.1c.1.1.2.2.3.3q.1.1.1.2c-.1.1-.1.3,0,.4.2.4.7.6,1.2.5.2,0,.3-.2.4-.2.1.1.1.3.2.5,0,.1.1.1.2.1s.1-.1.1-.2c-.1-.2-.2-.3-.3-.5-.1-.1-.2-.2.1-.3.2-.1.2-.2.2-.4s-.2-.3-.4-.3-.3,0-.3.2c0,.1-.1.1-.1.1-.1,0-.2-.1-.4-.1-.2-.1-.3-.3-.2-.5s.3-.3.5-.2h0c.2,0,.3.1.5.1.2.1.4.2.6.1s.1-.4.2-.6c0-.1,0-.2.1-.2s.2.1.2.2c0,.2.2.3.3.4.2.1.2.3.2.5s-.1.2-.2.2c-.2,0-.3,0-.3.2,0,.3.2.6.5.8.2.1.3,0,.3-.1,0-.4.2-.3.4-.3h.2q.3.1.2.3-.1.5.3.8c.1-.7.2-1.4.4-2.1,0-.1,0-.3.1-.4s.2,0,.3,0h.1l1.5.1q.1,0,.1.1c0,.3,0,.6-.1.9-.1-.1-.2-.2-.3-.3-.2-.2-.4-.3-.7-.3-.4-.1-.7.2-.8.5v.2c.1.6.7.9,1.3.8h.1c.1-.1.2-.1.3-.1-.1.4,0,.7.4.8,0-.7.1-1.4.2-2.1v-.4c.1-.2.3,0,.4-.1.2-.1.2,0,.2.2v1.7q0,.5.5.7v-2.3c0-.2,0-.3.3-.3.5,0,.9-.1,1.4-.1s.3-.1.4.3c0,.1,0,.2-.2.2s-.5.1-.8,0c-.4,0-.7.2-.7.6,0,.2,0,.3.1.5.2.3.4.6.7.8.1.1.1.2.2.1s0-.2-.1-.2c-.3-.2-.4-.5-.5-.8,0-.2.1-.4.3-.4h.1c.2,0,.5,0,.7-.1.1,0,.2,0,.2.1,0,.2.1.5,0,.8,0,.4.2.6.5.6v-.3c-.30001-.39996-.30001-.99997-.40001-1.59997Zm-15.1-4c-.1,0-.1-.1-.1-.2h0c.2-.4.7-.8,1.2-.3.3.4.5.9.6,1.4-.6-.2-1.1-.5-1.7-.9h0Zm2,1.6c-.1.2-.2.3-.2.5-.1.2-.2.2-.4.2-.3,0-.6-.2-.6-.5v-.2c.1-.2.1-.3.1-.5q0-.1.1-.1c.3.1.5.3.8.4q.2.1.2.2Zm1.6.10001q-.1-.1-.1-.2c.2-.5.5-.9,1.2-.4.4.3.7.8.8,1.2-.7-.1-1.3-.3-1.9-.6h0Zm.9,2.7c.2.1.3.2.5.2-.2.2-.4.3-.6.3-.1,0-.3,0-.3-.2,0-.1,0-.2.1-.3,0,0,.2,0,.3,0h0Zm2.6-1c-.1.1-.3-.2-.3-.4s.1-.3.3-.3c.1,0,.2.1.2.2-.1.2-.1.40001-.2.50001h0Zm3.8,1.5c-.2.1-.5.2-.7.3-.3,0-.5-.1-.6-.3,0-.2.2-.4.5-.5h.2c.3,0,.5.2.6.5.1,0,0,0,0,0h0Zm2.9-1.6c-.4,0-.8.1-1.2,0-.1,0-.2,0-.2-.2-.1-.4.1-.7.5-.8h.4c.5.2.9.5,1.2.9-.3,0-.5.1-.7.1h0Z" style="fill: #fff; stroke-width: 0px;"/>
      <path id="Path_347" data-name="Path 347" d="m42.64246,51.70403q-.2-.3.1-.5h0c-.2-.2-.5-.2-.7,0-.3.2-.7.4-1,.6-1,.4-1.9.9-2.9,1.2-1.2.4-2.4.8-3.6,1-.5.1-1,.2-1.4.3.1.2.4.3.7.2.3-.1.7-.1,1-.2q.1,0,.2.1c0,.2.1.5.1.7-.6-.3-.7-.3-1-.2-.3.1-.4.3-.4.6.1.5.6.8,1.1.6.1,0,.2-.1.3-.2h0c.1.3.1.7.5.8.1,0,.1-.1.1-.2-.1-.3-.1-.5-.2-.8s.1-.5.3-.7c.2-.1.4-.1.5.1,0,.1.1.1.1.2,0,.2,0,.4-.1.6-.1.1,0,.2.1.2s.1.1.2.1c.1.1.1,0,.2-.1.1-.2.1-.5.1-.7-.2-.7-.8-1-1.3-.6v-.2q-.1-.5.4-.6c.3,0,.6-.1.9-.3.1-.1.1,0,.2.1.1.2.2.5.2.7q.1.2-.1.3c-.2.1-.2.2-.1.4.2.2.3.3.6.4.1.1.3.1.4,0s0-.2,0-.4,0-.2.1-.2c.2-.1.4-.1.6-.2.1,0,.2,0,.2.1s0,.1.1.2c.10001.4.2.4.7.4,0-.1-.1-.2-.1-.2-.2-.7-.5-1.4-.7-2.1,0,0-.1-.1,0-.2.7-.3,1.4-.6,2.1-.9q.2-.1.3.1,0,.1.1.2.1.2-.1.3c-.4.2-.8.4-1.2.6.2.1.3.1.5.2s.3.2.5.3c.1.1.2.3,0,.5-.1.1-.2.1-.3.1-.2,0-.4,0-.5-.1-.2-.1-.4-.3-.6-.5,0,0-.1-.1-.1,0-.1,0-.1.1,0,.1.4.5.9.8,1.6.9.3,0,.6-.2.6-.5,0-.2-.1-.4-.2-.5-.2-.1-.3-.2-.5-.3.2-.1.4-.2.6-.3.1-.1.2,0,.2.1.1.3.3.6.4.9,0,.1.1.2.2.2h.4c0-.1,0-.2-.1-.2-.3-.6-.5-1.2-.8-1.7-.1-.1-.1-.2-.2-.3,0-.2.2-.1.3-.2.1-.2.2-.1.2,0,.3.5.6,1,.9,1.5.2.4.3.4.7.3l-1.4-2.10001Zm-7.4,3.7c-.1.2-.3.3-.5.4-.1.1-.3,0-.4-.1h0v-.2c.2-.30001.5-.40001.9-.10001h0q0-.1,0,0Zm3.4-1.1q0,.1,0,0c-.3.1-.6.3-.8.2s-.2-.4-.3-.6c-.2-.4-.1-.4.3-.5q.4-.2.6.3l.2.6q.1,0,0,0h0Z" style="fill: #fff; stroke-width: 0px;"/>
      <path id="Path_348" data-name="Path 348" d="m55.04245,29.40404c.6.2,1.2.3,1.7.5.2.1.6.1.7.2.1.2,0,.5.1.7s-.1.3-.3.3c-1,0-1.9.1-2.9.2-.2,0-.3,0-.3-.2q0-.5.5-.6c.7,0,1.4-.1,2.2-.1-.8-.2-1.6-.4-2.3-.7-.1,0-.3,0-.3-.1v-.5c0-.1.1-.1.2-.1.7-.2,1.5-.5,2.2-.6q.1,0,.2-.1l-1.89996-.10001h-.6c-.1,0-.2,0-.2-.2q-.1-.6.5-.6c.9,0,1.9.1,2.8.1.1,0,.2,0,.2.2,0,.3.1.6,0,.8s-.5.2-.8.3c-.5.3-1.1.5-1.7.6Z" style="fill: #fff; stroke-width: 0px;"/>
      <path id="Path_349" data-name="Path 349" d="m9.24246,44.90404l-1.3,1.1s-.1,0-.1.1c-.1.1-.3.3-.4.3-.2-.1-.3-.3-.4-.4s0-.1,0-.2c.8-.7,1.7-1.4,2.6-2,.1-.1.1,0,.2,0,.1.2.2.3.3.4s.1.2,0,.2c-.3.6-.5,1.2-.8,1.9l-.3.6c.2-.1.3-.2.4-.3.5-.4,1-.8,1.4-1.2.1-.1.2-.1.2,0q.4.4-.1.8c-.5.4-1.10001.89999-1.60001,1.3-.1.1-.2.1-.3.2-.2.1-.4.4-.4.3-.2-.2-.4-.4-.6-.6v-.2c.3-.7.6-1.4.9-2.1q.3-.10001.3-.2Z" style="fill: #fff; stroke-width: 0px;"/>
      <path id="Path_350" data-name="Path 350" d="m4.54246,24.70404c-.7-.1-1.4-.2-2.2-.3-.1,0-.2,0-.2-.2.1-.5.1-.6.6-.5.9.1,1.8.3,2.8.4q.2,0,.2.2-.1.6-.7.8c-.4.1-.7.3-1.1.4s-.7.2-1.1.4c.3,0,.6.1.9.1.5.1.9.1,1.4.2.1,0,.2.1.2.2q-.1.5-.6.5c-.9-.2-1.8-.3-2.8-.4-.2,0-.2-.1-.2-.2,0-.5.3-.9.8-1,.6-.2,1.2-.4,1.8-.6.1.09999.2.09999.2,0Z" style="fill: #fff; stroke-width: 0px;"/>
      <path id="Path_351" data-name="Path 351" d="m3.04246,33.70404c.5-.1,1.1-.2,1.6-.2.3,0,.6-.1.9-.1q.1,0,.2.1.1.6-.5.7c-.9.1-1.8.2-2.8.3q-.2,0-.2-.2c-.2-.4,0-.9.4-1.1.6-.3,1.1-.8,1.7-1.1-.2,0-.3.1-.5.1-.6.1-1.1.2-1.7.2-.1,0-.2,0-.2-.1h0c-.1-.6-.1-.5.5-.6.9-.1,1.8-.2,2.8-.4q.2,0,.2.2c.2.4,0,.8-.4,1s-.7.5-1.1.8c-.4.1-.6.3-.9.4Z" style="fill: #fff; stroke-width: 0px;"/>
      <path id="Path_352" data-name="Path 352" d="m44.34246,8.90404c.1-.1.2-.2.2-.2.3-.5.7-1.1,1-1.6q.1-.1.2,0,.5.3.2.8c-.5.8-1,1.5-1.5,2.3-.1.1-.1.2-.3.1q-.5-.4-.5-1c0-.6.1-1.4.2-2.1-.1,0-.1.1-.2.2-.4.6-.8,1.2-1.1,1.7-.1.1-.1.2-.3.1q-.39999-.3-.19999-.7c.5-.8,1-1.5,1.5-2.3.1-.1.2-.2.3-.1.1,0,.1.1.2.1.4.1.4.4.4.8.1.5.1,1.2-.1,1.9Z" style="fill: #fff; stroke-width: 0px;"/>
      <path id="Path_353" data-name="Path 353" d="m56.34246,37.00404c-1-.3-2-.7-3-1-.1,0-.1-.1-.2,0-.3.6-.5,1.2-.5,1.8v.3c.2.7.8,1.2,1.5,1.3.7.2,1.4-.1,1.7-.7.3-.5.5-1.1.6-1.6q0-.10001-.1-.10001Zm-.7.7c-.1.5-.4.9-.9,1-.6.1-1.1-.2-1.4-.7-.1-.1-.1-.3-.1-.4v-.2q.1-.6.6-.4c.5.2,1,.3,1.5.5q.3.10001.3.20001h0Z" style="fill: #fff; stroke-width: 0px;"/>
      <path id="Path_354" data-name="Path 354" d="m9.14246,42.70403c-.2-.6-.6-1.1-1-1.5-.3-.3-.7-.4-1.1-.4-.6,0-1.1.3-1.5.7-.3.3-.4.8-.3,1.2.2.7.5,1.2.9,1.8q.1.1.2,0c.9-.5,1.8-1,2.7-1.6q.09999-.09999.09999-.2Zm-1-.2c-.6.3-1.2.7-1.8,1-.1.1-.2,0-.2-.1-.3-.3-.4-.8-.2-1.2.2-.4.7-.7,1.1-.7.5,0,1,.3,1.1.8q.10001.09999,0,.19999Z" style="fill: #fff; stroke-width: 0px;"/>
      <path id="Path_355" data-name="Path 355" d="m52.94245,14.60403c-.8-.3-1.6-.2-2.2.4-.5.4-.7,1.1-.4,1.7.2.7.8,1.1,1.5,1.1s1.4-.4,1.8-1c.5-.6.2-1.7-.7-2.2.1.1,0,.1,0,0Zm-.1,2c-.3.3-.7.5-1.1.5s-.8-.2-.8-.6c0-.2,0-.3.1-.5.3-.5.8-.8,1.4-.8.3,0,.6.2.8.5,0,.4-.1.7-.4.9h0Z" style="fill: #fff; stroke-width: 0px;"/>
      <path id="Path_356" data-name="Path 356" d="m47.44245,8.80403c-.6,0-1.2.4-1.5.9-.4.5-.4,1.1-.1,1.6.3.6.9,1,1.5,1,.7,0,1.4-.4,1.7-1.1.4-.8.1-1.8-.7-2.2-.3-.1-.6-.2-.9-.2Zm-.1,2.8c-.3,0-.7-.1-.8-.4-.1-.3-.1-.7.2-1,.2-.2.4-.4.6-.5s.50001-.2.7-.2c.3.1.6.4.6.7-.2.7-.7,1.3-1.3,1.4h0Z" style="fill: #fff; stroke-width: 0px;"/>
      <path id="Path_357" data-name="Path 357" d="m21.54246,3.10404c-.9,0-1.7.7-1.7,1.6h0c-.1,1,.7,1.8,1.7,1.9.9.1,1.7-.6,1.8-1.5v-.1c0-1-.7-1.9-1.8-1.9.1,0,0,0,0,0Zm.4,2.9c-.4.1-.8,0-1-.3-.3-.3-.4-.8-.3-1.2,0-.3.2-.6.5-.7s.7,0,.9.2c.3.3.4.7.5,1.1-.1.5-.2.8-.6.9h0Z" style="fill: #fff; stroke-width: 0px;"/>
      <path id="Path_358" data-name="Path 358" d="m42.54245,5.00404s0,.1,0,0c-.5,1-.9,2-1.4,2.9q-.1.2-.3.1c-.1-.1-.2-.1-.3-.2-.3,0-.2-.2-.1-.3.2-.3.3-.6.5-1,.1-.1,0-.1-.1-.2-.3-.1-.7-.3-1-.4-.1-.1-.1,0-.2.1-.2.3-.3.7-.5,1-.1.1-.1.2-.2.1-.2-.1-.4-.1-.5-.3s.1-.3.2-.5c.4-.8.8-1.6,1.1-2.4.1-.2.2-.2.3-.1.1.1.2.1.3.2.2,0,.2.2.1.3-.2.3-.3.6-.4.9-.1.1,0,.1.1.2.3.1.7.3,1,.4.1.1.2,0,.2-.1.1-.3.3-.6.4-.9.1-.1.1-.2.2-.1s.3.1.4.2c.10001,0,.2,0,.2.1Z" style="fill: #fff; stroke-width: 0px;"/>
      <path id="Path_359" data-name="Path 359" d="m53.94245,18.40404c.5,0,1,.2,1.3.5.4.4.6,1,.7,1.5,0,.1,0,.2-.2.2s-.3.1-.4,0c-.1,0-.1-.2-.1-.4,0-.1-.1-.2-.1-.3-.1-.5-.5-.8-1-.8s-1,.3-1.2.8c-.2.4.1.7.2,1,0,0,.1.1.1,0h0c.2-.1.4-.1.6-.2.1,0,0-.1,0-.1,0-.1-.1-.2-.1-.3s0-.1.1-.2q.4-.2.6.2c.1.2.2.4.3.7q0,.1-.1.2c-.5.2-1,.4-1.4.6-.1,0-.2,0-.3-.1-.5-.6-.8-1.3-.7-2.1.1-.7.7-1.1,1.4-1.3.1.09999.2.09999.3.09999Z" style="fill: #fff; stroke-width: 0px;"/>
      <path id="Path_360" data-name="Path 360" d="m54.74246,41.10403c-.8-.4-1.6-.8-2.4-1.2q-.5-.3-.8.2c-.1.2,0,.2.1.3.3.1.6.3.9.4.1.1.2.1.1.2-.1.3-.4.4-.7.3h0c-.2-.1-.5-.1-.8-.2-.1,0-.2,0-.2.1-.1.2-.2.4-.3.6.6,0,1.2.4,1.8.1v.3c.2.5.7.8,1.2.6.2-.1.4-.2.5-.3.3-.4.6-.8.7-1.3q.10001,0-.09999-.1Zm-.7.7c-.1.1-.1.3-.2.4-.1.2-.3.2-.5.1s-.3-.3-.3-.5.1-.4.2-.5.1,0,.2,0c.2.1.4.2.6.3t0,.2h0Z" style="fill: #fff; stroke-width: 0px;"/>
      <path id="Path_361" data-name="Path 361" d="m12.84246,11.60403c-.1.5-.4,1-.9,1.2-.4.2-.9.2-1.3-.1-.2-.1-.4-.3-.5-.5-.4-.4-.8-.7-1.2-1.1-.1-.1-.1-.2,0-.3q.4-.5.9,0l1,1c.1.1.3.3.5.3.2.1.5,0,.6-.1.2-.2.2-.4.1-.7-.1-.2-.2-.4-.4-.5l-1.2-1.2c-.1-.1-.1-.2,0-.3q.4-.4.8,0c.4.4.7.7,1.1,1.1.30001.4.50001.8.50001,1.2Z" style="fill: #fff; stroke-width: 0px;"/>
      <path id="Path_362" data-name="Path 362" d="m6.64246,37.80403q0-.1-.1-.2-.1-.4-.6-.4h-.3c-.1,0-.2,0-.2-.1h0c-.1-.2-.1-.4-.2-.6-.1-.1,0-.2.1-.3.2-.1.3-.2.5-.3q.1-.1.1-.2c-.1-.2-.1-.4-.2-.7-1,.7-2,1.3-3,1.9q-.1.1-.1.2c.1.2.2.5.2.7s.1.2.2.2h3.3c.3-.1.4-.1.3-.2Zm-3.1-.6l1.2-.8c.1.2.1.5.2.7-.4.1-.9.1-1.4.1h0Z" style="fill: #fff; stroke-width: 0px;"/>
      <path id="Path_363" data-name="Path 363" d="m52.14246,44.70403c-.6-.8-1.2-1.6-1.8-2.3-.1.2-.2.3-.3.5s-.1.2,0,.4c.2.2.4.3.4.5s-.2.4-.4.6c-.1.2-.2.2-.5.2q-.6-.2-.9.3-.1.2.1.3c1,.3,1.9.6,2.9,1,.2.1.4.1.5-.2.1-.2.4-.4.4-.6-.1-.3-.3-.5-.39999-.7Zm-.5.60001l-1.2-.5c.1-.2.2-.3.4-.5q.1-.1.2,0c.1.3.39999.6.6,1h0Z" style="fill: #fff; stroke-width: 0px;"/>
      <path id="Path_364" data-name="Path 364" d="m57.04245,33.60403c-.2-.1-.4-.2-.7-.3l-2.5-1.2c0,.2-.1.3-.1.5-.1.2,0,.3.2.4q.6.2.5.9c0,.3-.1.4-.4.4-.6,0-.6.1-.7.7,0,.1,0,.2.2.2,1-.2,2.1-.3,3.1-.4.2,0,.3-.1.3-.3s.1-.4.1-.6c.2-.2.10001-.30001,0-.30001q.10001,0,0,0Zm-1.8.6q-.1,0-.1-.1c0-.2.1-.4.1-.6l1.3.6c-.50001,0-.9,0-1.3.1h0Z" style="fill: #fff; stroke-width: 0px;"/>
      <path id="Path_365" data-name="Path 365" d="m34.44245,2.90403c-.4,0-.7-.1-1-.1q-.2,0-.2.2-.1.5.4.6c.2,0,.3,0,.5.1.1,0,.3,0,.3.1,0,.2,0,.4-.1.5,0,.1-.1,0-.2,0-.3,0-.6-.1-.9-.1-.1,0-.2,0-.2.1q-.1.7.5.8c.2,0,.5.1.7.1q.1,0,.1.1c0,.2,0,.3-.1.5,0,.1-.1.1-.2.1-.6-.1-1.3-.2-1.9-.3-.1,0-.1-.1-.1-.2.1-.9.3-1.9.4-2.8q.1-.5.5-.4c.5.1,1,.1,1.5.2.1,0,.2.1.2.2v.2c.1.09999,0,.2-.2.09999Z" style="fill: #fff; stroke-width: 0px;"/>
      <path id="Path_366" data-name="Path 366" d="m16.84246,4.90403c.1,0,.1.1.2.2q.2.4-.1.6c-.2.1-.5.3-.7.4-.1,0-.1.1-.1.2q.3.5.8.2c.1,0,.2-.1.2-.1q.4-.2.6.2c.1.1.1.2-.1.2-.3.2-.6.3-.8.5q-.1.1-.1.2c.1.2.2.5.3.5s.4-.2.5-.3.4-.2.6-.3h.2q.3.4-.2.7l-1.2.7q-.3.2-.4-.1c-.3-.5-.5-1-.8-1.4-.2-.4-.5-.8-.7-1.2-.1-.1-.1-.2,0-.2.6-.3,1.1-.6,1.8-1h0Z" style="fill: #fff; stroke-width: 0px;"/>
      <path id="Path_367" data-name="Path 367" d="m6.44245,22.00404c0,.4-.2.9-.5,1.2-.1.1-.2.1-.3,0-.1-.1-.3-.1-.3-.2s.1-.2.2-.3c.1-.2.2-.4.2-.6s0-.3-.2-.4c-.1-.1-.3,0-.4.1-.2.2-.3.3-.4.5-.2.3-.7.5-1.2.3s-.8-.8-.6-1.3c.1-.3.2-.6.4-.9q.1-.1.2,0c.1.1.3.2.4.3s-.1.2-.2.4-.1.3-.2.5c0,.1,0,.3.2.3.1.1.3,0,.4-.1.2-.2.3-.4.5-.5.2-.3.6-.5.9-.4.6,0,1,.4.9,1.1Z" style="fill: #fff; stroke-width: 0px;"/>
      <path id="Path_368" data-name="Path 368" d="m48.54245,46.10403c-.2.1-.4.2-.6.4l-.3.3c-.1.1-.1.3,0,.4s.3.2.4.1c.1,0,.2-.1.4-.1.2-.1.3-.2.5-.2.3-.1.7,0,1,.3.2.3.3.7.2,1-.2.5-.6.9-1,1.1-.1.1-.1,0-.2-.1s-.2-.3-.2-.4c0-.2.2-.2.3-.3.1-.1.3-.2.4-.4.1-.1.1-.3,0-.4s-.2-.1-.4-.1c-.2.1-.5.2-.8.3-.3.2-.7.1-1-.1-.4-.3-.5-.7-.3-1.1.2-.5.6-1,1.1-1.2h.2c.10001.19999.2.39999.3.49998Z" style="fill: #fff; stroke-width: 0px;"/>
      <path id="Path_369" data-name="Path 369" d="m38.24246,3.90403c-.3-.2-.7-.3-1-.3-.2,0-.3,0-.4.1-.4.3-.6.8-.6,1.3.1.5.4.8.8.9.1,0,.3.1.4.1.2,0,.2.1.2.2q0,.4-.5.4c-.2,0-.5-.1-.7-.2-.7-.2-1.1-.8-1.1-1.5,0-.8.4-1.5,1.1-1.8.7-.2,1.4-.2,2,.2q.1.1,0,.2c0,.1-.10001.3-.2.4Z" style="fill: #fff; stroke-width: 0px;"/>
      <path id="Path_370" data-name="Path 370" d="m24.64246,5.80403c-.1,0-.1-.1,0,0-.3-1.1-.4-2-.6-3q-.1-.4.3-.4c.5-.1,1-.2,1.5-.3.1,0,.2,0,.2.1q.1.5-.4.5c-.2,0-.5.1-.7.1s-.2.1-.1.2c0,.1.1.3.1.4,0,.2.1.2.3.2.3-.1.6-.1.9-.1.1,0,.2,0,.2.1q.1.5-.4.6c-.2,0-.4.1-.5.1-.2,0-.2.1-.2.3.1.3.1.6.2,1,0,.1,0,.2-.2.2-.3,0-.4,0-.6,0Z" style="fill: #fff; stroke-width: 0px;"/>
      <path id="Path_371" data-name="Path 371" d="m55.34246,23.60403l1.4.2q.1,0,.2.1c.1.2.1.5.2.8-.5-.1-.9-.2-1.4-.4-.6-.2-1.2-.2-1.8,0-.5.2-.5.1-.6-.4-.1-.2,0-.3.2-.3h.1c.7-.1,1.4-.4,1.9-1,.3-.3.6-.5.9-.8.1.2.1.5.2.7.1.1,0,.3-.1.3-.39999.3-.79999.60001-1.19999.8Z" style="fill: #fff; stroke-width: 0px;"/>
      <path id="Path_372" data-name="Path 372" d="m10.24246,14.90404c-.1.2-.3.4-.4.6,0,0-.1,0-.1-.1-.7-.4-1.3-.9-2-1.4-.2-.1-.3-.1-.3.1,0,.1-.1.1-.1.2-.1.1-.2.3-.3.3-.2-.1-.3-.2-.5-.3-.1,0,0-.1,0-.1.5-.7,1-1.3,1.4-2q.1-.1.2,0c.1.1.2.2.3.2q.1.1,0,.2c-.1.2-.2.3-.4.5-.1.1-.1.2,0,.3.7.5,1.3,1,2,1.5q.2-.1.2,0Z" style="fill: #fff; stroke-width: 0px;"/>
      <path id="Path_373" data-name="Path 373" d="m29.64246,3.90403v-1.2c0-.1,0-.2-.2-.2h-.6c-.1,0-.2,0-.1-.1h0q0-.5.5-.5h2q.2,0,.2.2,0,.5-.5.5t-.5.5v2.1c0,.1,0,.2-.2.2q-.6,0-.6-.6c0-.3,0-.6,0-.9h0Z" style="fill: #fff; stroke-width: 0px;"/>
      <path id="Path_374" data-name="Path 374" d="m4.34246,19.40404c-.2-.1-.3-.2-.5-.2-.1,0,0-.1,0-.2.3-.7.7-1.5,1-2.2,0-.1.1-.1.2-.1q.5.2.3.7-.2.4.2.6c.7.3,1.3.6,2,.9.1.1.2.1.1.2-.1.2-.1.4-.3.5s-.3-.1-.5-.2c-.6-.3-1.2-.6-1.9-.9-.1-.1-.2,0-.2.1-.1.2-.2.4-.2.6-.1.1-.1.2-.2.2Z" style="fill: #fff; stroke-width: 0px;"/>
      <path id="Path_375" data-name="Path 375" d="m14.64246,10.40404s-.1-.1-.1-.2l-1.4-1.8q-.2-.3-.4-.1c-.1.1-.3.2-.4.3s-.1.1-.2,0q-.3-.4.1-.7c.5-.4,1.1-.8,1.6-1.2.1-.1.2-.1.2,0q.3.4-.1.7t-.1.7c.4.6.9,1.2,1.3,1.7.1.1.1.2,0,.3s-.2.2-.5.3q.1,0,0,0Z" style="fill: #fff; stroke-width: 0px;"/>
      <path id="Path_376" data-name="Path 376" d="m50.74246,11.50404s.1,0,0,0c.2.2.4.4.5.5s0,.1-.1.2c-.6.5-1.3,1-1.9,1.5-.1.1-.1.2,0,.3.2.3.4.5.6.8q.1.1,0,.2-.4.3-.7-.1c-.3-.4-.6-.8-.9-1.2q-.1-.1,0-.2c.7-.6,1.6-1.3,2.5-2-.1,0,0,0,0,0Z" style="fill: #fff; stroke-width: 0px;"/>
      <path id="Path_377" data-name="Path 377" d="m1.94246,28.80403c-.1,0-.2-.1-.2-.2q0-.6.6-.6c.9.1,1.8.1,2.8.1q.2,0,.2.2v.2q0,.4-.4.3c-.5,0-.9,0-1.4-.1l-1.6.1Z" style="fill: #fff; stroke-width: 0px;"/>
      <path id="Path_378" data-name="Path 378" d="m8.84246,16.90404c-.1.2-.2.4-.4.6,0,.1-.1,0-.1,0-.9-.5-1.8-1.1-2.8-1.6-.1,0-.1-.1-.1-.2h0q.3-.5.8-.2c.8.5,1.5.9,2.3,1.4.2-.1.3-.1.3,0Z" style="fill: #fff; stroke-width: 0px;"/>
      <path id="Path_379" data-name="Path 379" d="m7.34246,39.30404c0,.1-.1.1,0,0-1.1.5-2.1.9-3,1.3-.1,0-.2,0-.2-.1q-.3-.6.3-.8c.8-.3,1.7-.7,2.5-1.1.2-.1.2,0,.3.1-.1.2,0,.39999.1.6Z" style="fill: #fff; stroke-width: 0px;"/>
      <path id="Path_380" data-name="Path 380" d="m12.94245,47.10403c0,.1-.1.1,0,0-.8.9-1.6,1.6-2.3,2.4-.1.1-.2.1-.2,0-.1-.2-.4-.3-.4-.4s.2-.3.4-.4c.6-.6,1.3-1.3,1.9-1.9.1-.1.2-.1.3,0,.1.10001.2.2.3.3q-.1-.1,0,0Z" style="fill: #fff; stroke-width: 0px;"/>
      <path id="Path_381" data-name="Path 381" d="m13.64246,50.80404c-.3,0-.5-.2-.5-.5h0c0-.3.2-.5.5-.5h0c.3,0,.5.2.5.5s-.2.5-.5.5Z" style="fill: #fff; stroke-width: 0px;"/>
      <path id="Path_382" data-name="Path 382" d="m45.64246,50.80404c-.3,0-.5-.2-.5-.5h0c0-.3.2-.5.5-.5s.5.2.5.5-.2.5-.5.5h0Z" style="fill: #fff; stroke-width: 0px;"/>
      <path id="Path_383" data-name="Path 383" d="m38.14246,51.40404c.2,0,.3.1.5.2l.1.1h-.1c-.3-.1-.5,0-.6.3s0,.5.3.7c.1,0,.2,0,.1.2s-.2,0-.2,0c-.2-.1-.3-.2-.5-.4-.2-.2-.2-.4-.1-.7-.00001-.3.29999-.39999.49999-.39999Z" style="fill: #fafafc; stroke-width: 0px;"/>
      <path id="Path_384" data-name="Path 384" d="m25.54246,53.30404c0-.3.2-.6.5-.6h0c.3,0,.7.2.8.5v.1c0,.1-.1,0-.1,0-.1-.1-.3-.2-.4-.2-.3,0-.5.3-.4.6v.2c0,.1.1.1.1.2v.1s-.1,0-.1-.1c-.3-.3-.4-.6-.4-.8Z" style="fill: #fafafc; stroke-width: 0px;"/>
      <path id="Path_385" data-name="Path 385" d="m35.94245,56.70403c.1,0,0-.1.1-.2,0,0,0,.1-.1.2h0Z" style="fill: #c09b99; stroke-width: 0px;"/>
      <path id="Path_386" data-name="Path 386" d="m52.14246,29.40404c0,3.2-.6,6.3-1.9,9.2-.8,1.9-2,3.7-3.3,5.3-3.2,3.8-7.6,6.4-12.5,7.4-6.5,1.4-13.2-.1-18.5-4.2-2.7-2.1-4.9-4.7-6.4-7.7-1.2-2.3-2-4.8-2.2-7.4-.5-4.2.2-8.4,2-12.2,1.4-3,3.6-5.7,6.2-7.8,1.8-1.5,3.9-2.7,6.2-3.5,4-1.5,8.4-1.8,12.5-1,4.8,1,9.1,3.5,12.3,7.1,2.8,3.1,4.6,6.8,5.3,10.9.2,1.39999.3,2.69999.3,3.89999Z" style="fill: #d5a44f; stroke-width: 0px;"/>
      <path id="Path_387" data-name="Path 387" d="m34.34246,55.40404v.2c-.1,0-.1-.1,0-.2Z" style="fill: #641514; stroke-width: 0px;"/>
      <path id="Path_388" data-name="Path 388" d="m34.34246,55.40404v.2c-.2,0-.2-.1,0-.2Z" style="fill: #fff; stroke-width: 0px;"/>
      <path id="Path_389" data-name="Path 389" d="m29.74246,43.40404c-2.7,0-5.3-.4-7.8-1.4-2.4-.9-4.5-2.3-6.3-4.2-1.2-1.3-2.1-2.8-2.6-4.5-.1-.3,0-.7.3-1s.6-.5,1-.6c1.2-.5,2.4-.8,3.6-1.1,2.1-.4,4.2-.7,6.3-.8.2,0,.2-.1.1-.2-.5-1.1-.8-2.3-.9-3.5-.2-1.9,0-3.8.6-5.6.5-1.7,1.3-3.4,2.3-4.8.5-.8,1-1.6,1.5-2.4.7-1.1,1.2-2.3,1.4-3.6,0-.2.1-.2.2-.2q.4,0,.4.4c.3,1.4.8,2.7,1.6,3.9.6,1,1.3,2,1.9,3,.3.4.5.9.7,1.3.8,1.4,1.3,3,1.5,4.6.4,2.3.1,4.7-.8,6.9q-.1.3.2.3c2.6.2,5.3.6,7.8,1.2.8.2,1.5.5,2.2.8.4.2.8.5.9,1v.3c-.6,2.1-1.8,4.1-3.4,5.6-.6.6-1.3,1.1-2,1.6-2.2,1.4-4.5,2.3-7,2.7-.4.1-.8.1-1.3.2-.7.10001-1.5.2-2.4.10001Z" style="fill: #181412; stroke-width: 0px;"/>
      <path id="Path_390" data-name="Path 390" d="m17.64246,43.50404c.8.1,1.6.3,2.4.4,1.7.3,3.4.6,5.1.9.1,0,.2,0,.3.1l-.9,1,8.1.7-.8.7,7.7.3v.1l-10.3,1,1.3-1.2-8.4-.8,1.4-1-5.9-2.2h0Z" style="fill: #fff; stroke-width: 0px;"/>
      <path id="Path_391" data-name="Path 391" d="m17.64246,43.50404h-.2c0-.1.1-.1.2,0Z" style="fill: #f0dfc3; stroke-width: 0px;"/>
      <path id="Path_392" data-name="Path 392" d="m14.14246,34.20404c1,.3,2.1.6,3.1.8.9.2,1.8.3,2.7.4,1.1.1,2.2.2,3.3.2,1.5,0,2.9-.3,4.3-.6.7-.2,1.3-.3,1.9-.6h.3c1.3.5,2.6.8,3.9,1,.6.1,1.2.1,1.8.2.7.1,1.4,0,2.1,0,.9-.1,1.8-.2,2.6-.3,1.2-.2,2.4-.4,3.6-.7.4-.1.7-.2,1.1-.4-.1.4-.3.8-.5,1.1-1,1.8-2.4,3.3-4.1,4.4-2,1.4-4.3,2.3-6.7,2.8-1.1.2-2.2.3-3.3.4-1.3.1-2.5,0-3.8-.2-1.8-.2-3.6-.7-5.3-1.4-1.5-.6-2.9-1.4-4.1-2.5-.7-.6-1.3-1.2-1.9-1.9-.09999-.80001-.59999-1.70001-1-2.70001,0,.1,0,0,0,0Z" style="fill: #781e19; stroke-width: 0px;"/>
      <path id="Path_393" data-name="Path 393" d="m32.24246,25.20404c.3-.6.4-1.3.3-2,0-.5-.2-1.1-.2-1.6-.1-.8-.2-1.6-.1-2.4v-.2c.1-.1,0-.3-.1-.4-.1-.1-.3-.1-.4,0-.2.1-.3.3-.5.4l-.5-1.2-.7,1c-.2-.1-.2-.4-.4-.4s-.3.2-.4.3l-.7-.9c-.2.4-.4.8-.6,1.2-.2-.1-.3-.3-.5-.4-.1-.1-.3-.2-.4-.1-.2.1-.2.2-.1.4.1.4.1.9,0,1.3,0,.8-.1,1.5-.3,2.2-.2.9-.1,1.9.2,2.7-.4,0-.8.1-1.1.2-.2.1-.3.2-.3.3,0,.2.1.2.3.3.2,0,.3.2.4.4.1.1,0,.1-.1.2-.2.1-.3.2-.5.3-.2.2-.2.4,0,.5.2.2.5.3.7.5.4.4,1,.6,1.5.6.1,0,.2,0,.2.1.1.5.4.9.8,1.3.1.1.2.2.2.3v3.5q0,.2-.2.3c-.3.1-.5.2-.8.2-.1,0-.2.1-.3-.1-1.2-1.5-2.1-3.1-2.9-4.8-1.2-3-1.2-6.4,0-9.5.5-1.4,1.2-2.7,2-3.9.3-.5.6-.9.9-1.4.8-1.1,1.4-2.3,1.8-3.5.1.2.1.3.2.5.4,1.1,1,2.2,1.7,3.2.8,1.2,1.6,2.4,2.2,3.7.7,1.4,1.1,2.8,1.4,4.3.3,2.2.1,4.4-.8,6.4-.8,1.7-1.7,3.3-2.9,4.8-.1.1-.2.1-.3.1-.2-.1-.5-.2-.8-.2-.1,0-.2-.1-.2-.2v-3.6c0-.1,0-.2.1-.3.4-.3.7-.8.9-1.3,0-.1.1-.1.2-.1.5,0,1-.2,1.4-.5.2-.2.5-.4.8-.5.1-.1.2-.2.1-.4l-.1-.1c-.2-.1-.4-.3-.5-.4s-.1-.1-.1-.2c.1-.2.2-.3.5-.3.2,0,.3-.1.3-.3,0-.1-.1-.3-.2-.3-.30001,0-.70001,0-1.10001,0Z" style="fill: #fff; stroke-width: 0px;"/>
      <path id="Path_394" data-name="Path 394" d="m31.94245,34.40404c.5-.7,1-1.4,1.5-2.1.2-.3.4-.7.6-1.1.2-.2.3-.4.4-.7,0-.1.2-.1.2-.1.9.1,1.9.2,2.8.3,1.8.2,3.6.5,5.3,1,.7.2,1.3.4,1.9.7.2.1.4.2.5.3.4.3.4.5,0,.7l-.6.3c-1,.3-2,.6-3.1.7-1.4.2-2.8.4-4.2.5-1,0-2,0-2.9-.1-.7-.1-1.5-.2-2.2-.4,0,0-.1,0-.2,0Z" style="fill: #fff; stroke-width: 0px;"/>
      <path id="Path_395" data-name="Path 395" d="m22.54246,34.90404c-1.2,0-2.4-.1-3.5-.3-1.3-.2-2.7-.4-3.9-.8-.4-.1-.7-.2-1.1-.4-.3-.2-.3-.4,0-.6.5-.3,1-.6,1.6-.8,1.5-.5,3.1-.8,4.7-1,1.4-.2,2.9-.4,4.3-.5.1,0,.2,0,.3.1.7,1.3,1.4,2.5,2.3,3.6q.1.2-.1.2c-1.6.4-3.1.5-4.6.5Z" style="fill: #fff; stroke-width: 0px;"/>
      <path id="Path_396" data-name="Path 396" d="m29.64246,19.20404c.7,1.1,1.1,2.4,1.4,3.7.2.8.1,1.5-.1,2.2-.2.5-.4.9-.8,1.2-.3.2-.7.2-.9,0-.5-.5-.9-1.2-1-1.9-.1-1.4.2-2.9.9-4.2.1-.3.3-.6.5-1Z" style="fill: #ca111b; stroke-width: 0px;"/>
      <path id="Path_397" data-name="Path 397" d="m29.74246,27.10403c.6,0,1,.5,1,1.1,0,.2-.1.3-.1.5-.2.3-.5.6-.8.9-.1.1-.1,0-.2,0l-.7-.7c-.4-.5-.2-1.2.3-1.6h.1c.1-.1.2-.2.4-.2Z" style="fill: #ca111b; stroke-width: 0px;"/>
      <path id="Path_398" data-name="Path 398" d="m31.64246,19.50404c0,1.3.1,2.6.3,3.8.1.6-.1,1.3-.4,1.8,0-.2.1-.4.1-.6.1-1.2-.1-2.4-.6-3.6,0-.1-.1-.2-.1-.2q-.2-.5.2-.9c.2-.1.3-.2.5-.3Z" style="fill: #ca111b; stroke-width: 0px;"/>
      <path id="Path_399" data-name="Path 399" d="m27.54246,25.00404c-.2-.4-.3-.8-.3-1.3,0-.6.1-1.1.2-1.7.1-.8.2-1.6.2-2.4v-.2c.3.2.5.4.7.6.1.1.1.2,0,.3-.3.6-.5,1.3-.7,2-.2.8-.2,1.7-.1,2.5.09999.10001.09999.2,0,.2Z" style="fill: #ca111b; stroke-width: 0px;"/>
      <path id="Path_400" data-name="Path 400" d="m26.44245,27.10403c.6-.4,1.3-.5,2-.2.1,0,.2.1.1.2-.2.2-.3.4-.3.6s-.1.2-.3.2c-.4,0-.8-.2-1.1-.5l-.4-.3Z" style="fill: #ca111b; stroke-width: 0px;"/>
      <path id="Path_401" data-name="Path 401" d="m30.74246,26.90404c.6-.2,1.4-.2,2,.2.1,0,.1.1,0,.1-.3.4-.8.6-1.3.7-.1,0-.2,0-.2-.1-.1-.4-.3-.7-.5-.9Z" style="fill: #ca111b; stroke-width: 0px;"/>
      <path id="Path_402" data-name="Path 402" d="m26.64246,25.80403c.3-.2.7,0,.9.3h-.3q-.4.1-.6-.3Z" style="fill: #c5131b; stroke-width: 0px;"/>
      <path id="Path_403" data-name="Path 403" d="m31.64246,26.10403c.2-.4.6-.3.9-.3q-.2.5-.9.3Z" style="fill: #c5131b; stroke-width: 0px;"/>
      <path id="Path_404" data-name="Path 404" d="m30.64246,18.90404c.1.2.3.3.1.5-.1,0-.1.2-.2.1s-.2-.2-.1-.3c0,0,.1-.1.2-.3Z" style="fill: #c2121c; stroke-width: 0px;"/>
      <path id="Path_405" data-name="Path 405" d="m28.84246,19.30403c0,.1-.1.2-.2.3,0,0-.1-.1-.2-.1-.1-.1,0-.2,0-.2,0,0,0-.2.1-.2.3,0,.3.1.3.2Z" style="fill: #c2121c; stroke-width: 0px;"/>
    </g>
    <g style="isolation: isolate;">
      <path d="m66.49046,19.22903v-1.7h5.9v1.7l-1.5.3v10.2l1.5.3v1.7h-5.9v-1.7l1.5-.3v-10.2l-1.5-.3Z" style="fill: #363636; stroke-width: 0px;"/>
      <path d="m73.49046,19.22903v-1.7h5.9v1.7l-1.5.3v10.2l1.5.3v1.7h-5.9v-1.7l1.5-.3v-10.2l-1.5-.3Z" style="fill: #363636; stroke-width: 0px;"/>
      <path d="m92.99046,17.52903v3.8h-2.2l-.1-1.6h-2.6v10l1.5.3v1.7h-5.9v-1.7l1.5-.3v-10h-2.6l-.1,1.6h-2.2v-3.8s12.69999,0,12.69999,0Z" style="fill: #363636; stroke-width: 0px;"/>
      <path d="m112.59046,21.22903h0l-3.9,10.5h-1.9l-3.8-10.5h-.1l.3,6.2v2.2l1.5.3v1.7h-5.9v-1.7l1.5-.3v-10.1l-1.5-.3v-1.7h5.2l3.6,10.5h.1l3.7-10.5h5.2v1.7l-1.5.3v10.2l1.5.3v1.7h-5.9v-1.7l1.5-.3v-2.2l.40001-6.3Z" style="fill: #363636; stroke-width: 0px;"/>
      <path d="m124.49046,31.72903c-.1-.2-.2-.4-.2-.5s-.1-.4-.1-.6c-.3.4-.8.7-1.2,1-.5.2-1,.4-1.7.4-1,0-1.9-.3-2.5-.8-.6-.6-.9-1.3-.9-2.3s.4-1.8,1.2-2.3,2-.8,3.5-.8h1.5v-1c0-.5-.1-.9-.4-1.2-.3-.3-.7-.4-1.3-.4-.3,0-.6,0-.9.1s-.5.2-.6.3l-.2,1.1h-2.1v-2.3c.5-.3,1.1-.6,1.8-.9.7-.2,1.4-.4,2.2-.4,1.3,0,2.4.3,3.2,1,.8.6,1.2,1.5,1.2,2.7v5.3l.9.1v1.7l-3.4-.20001h0Zm-2.5-1.9c.4,0,.8-.1,1.2-.3.3-.2.6-.4.8-.7v-1.6h-1.5c-.6,0-1.1.1-1.4.4-.3.3-.5.6-.5,1s.1.6.4.8c.3.3.6.4,1,.4Z" style="fill: #363636; stroke-width: 0px;"/>
      <path d="m135.59046,30.42903c-.3.5-.7.9-1.2,1.1-.39999.2-1,.4-1.60001.4-1.3,0-2.3-.5-3-1.4s-1.10001-2.2-1.10001-3.8v-.2c0-1.7.39999-3,1.10001-4s1.7-1.5,3.10001-1.5c.5,0,1,.1,1.39999.4.39999.2.8.6,1.10001,1v-3.8l-1.5-.3v-1.7h4.39999v13.2l1.39999.3v1.7h-3.8l-.29999-1.4Zm-4-3.7c0,.9.10001,1.6.5,2.2.3.5.8.8,1.5.8.39999,0,.8-.1,1.10001-.2.3-.2.60001-.4.8-.7v-4.5c-.2-.3-.39999-.6-.8-.8-.3-.2-.7-.3-1.10001-.3-.7,0-1.2.3-1.5.9s-.5,1.4-.5,2.4v.2h0Z" style="fill: #363636; stroke-width: 0px;"/>
      <path d="m140.79046,30.02903l1.39999-.3v-6.6l-1.5-.3v-1.7h4.2l.10001,1.5c.2-.5.60001-1,1-1.3s.8-.5,1.39999-.5h.5c.2,0,.3,0,.39999.1l-.3,2.6h-1.2c-.39999,0-.8.1-1,.2s-.5.4-.60001.7v5.1l1.39999.3v1.7h-5.59998l-.2-1.5h0Z" style="fill: #363636; stroke-width: 0px;"/>
      <path d="m155.49046,31.72903c-.10001-.2-.10001-.4-.2-.5s-.10001-.4-.10001-.6c-.3.4-.8.7-1.2,1-.5.2-1,.4-1.7.4-1,0-1.89999-.3-2.5-.8-.60001-.6-.89999-1.3-.89999-2.3s.39999-1.8,1.2-2.3,2-.8,3.5-.8h1.5v-1c0-.5-.10001-.9-.39999-1.2-.3-.3-.7-.4-1.3-.4-.3,0-.60001,0-.89999.1s-.5.2-.60001.3l-.2,1.1h-2.10001v-2.3c.5-.3,1.10001-.6,1.8-.9.7-.2,1.39999-.4,2.2-.4,1.3,0,2.39999.3,3.2,1s1.2,1.5,1.2,2.7v5.3l.89999.1v1.7l-3.39999-.20001h0Zm-2.5-1.9c.39999,0,.8-.1,1.2-.3.3-.2.60001-.4.8-.7v-1.6h-1.5c-.60001,0-1.10001.1-1.39999.4-.3.3-.5.6-.5,1s.10001.6.39999.8c.3.3.60001.4,1,.4Z" style="fill: #363636; stroke-width: 0px;"/>
      <path d="m168.39045,24.82903h-1.89999l-.3-1.3c-.2-.2-.39999-.3-.7-.4s-.60001-.2-1-.2c-.5,0-.89999.1-1.2.3s-.39999.5-.39999.8.10001.6.39999.8c.3.2.8.4,1.7.6,1.3.3,2.3.6,2.89999,1.2.60001.5.89999,1.2.89999,2.1,0,1-.39999,1.7-1.2,2.3s-1.89999.9-3.2.9c-.8,0-1.60001-.1-2.2-.4-.7-.2-1.3-.6-1.8-1v-2.4h2l.39999,1.4c.2.1.39999.2.7.3s.60001.1.89999.1c.60001,0,1-.1,1.3-.3s.39999-.5.39999-.9c0-.3-.10001-.6-.5-.8-.3-.2-.89999-.4-1.7-.6-1.2-.2-2.2-.6-2.8-1.1s-.89999-1.2-.89999-2c0-.9.39999-1.6,1.10001-2.3.7-.6,1.8-1,3.10001-1,.8,0,1.60001.1,2.3.3s1.3.5,1.7.8v2.8Z" style="fill: #363636; stroke-width: 0px;"/>
    </g>
  </g>
  <g>
    <path d="m74.40889,43.00033c0,1.05859-.19531,1.94336-.58545,2.65332-.39062.70996-.95557,1.24414-1.6958,1.60254-.73975.3584-1.63721.53711-2.69238.53711h-2.58008v-9.40723h2.86963c.96045,0,1.79053.17578,2.48975.52441.69922.35059,1.23975.86719,1.62158,1.55078.38184.68457.57275,1.53027.57275,2.53906Zm-1.3833.03809c0-.80664-.13086-1.4707-.39258-1.99414s-.64551-.91309-1.15186-1.16797c-.50635-.25586-1.12598-.38281-1.85938-.38281h-1.44775v7.18066h1.21631c1.21338,0,2.12305-.30469,2.72803-.91406.60449-.60938.90723-1.5166.90723-2.72168Z" style="stroke-width: 0px;"/>
    <path d="m79.08663,40.57455c.61768,0,1.14746.13184,1.58936.39551.44141.26367.78027.63574,1.0166,1.11621.23584.48047.35352,1.04688.35352,1.69824v.7334h-4.8125c.0127.75977.20801,1.3418.58545,1.74707s.90723.6084,1.58936.6084c.4502,0,.85107-.04297,1.20312-.12891.35156-.08594.71631-.21191,1.09375-.37988v1.08789c-.35596.16309-.71338.28223-1.07129.35645-.3584.0752-.78613.11328-1.28369.11328-.68652,0-1.28809-.1377-1.80469-.41211-.51709-.27441-.91895-.68066-1.20654-1.21875-.28711-.53906-.43115-1.20215-.43115-1.99219,0-.78027.13086-1.44824.39258-2.00391s.63037-.98145,1.10693-1.27734c.47607-.2959,1.03564-.44336,1.6792-.44336Zm-.00635,1.00293c-.52344,0-.94385.1709-1.26123.51172s-.50391.8291-.55957,1.46387h3.4873c-.00439-.39062-.06689-.7334-.18701-1.0293s-.30127-.52734-.54346-.69531c-.24219-.16699-.55469-.25098-.93604-.25098Z" style="stroke-width: 0px;"/>
    <path d="m85.81026,50.95932c-.94922,0-1.67578-.17383-2.18457-.52148-.5083-.34766-.7627-.83203-.7627-1.4541,0-.44238.13965-.81641.41846-1.12305s.66895-.51367,1.17139-.62109c-.18945-.08496-.35156-.2168-.48633-.39551-.13477-.17773-.20264-.37793-.20264-.60156,0-.26172.07422-.4873.22217-.67871.14844-.19043.37012-.37598.66602-.55664-.37305-.1543-.67383-.41016-.90088-.76855-.22754-.3584-.34131-.77734-.34131-1.25781,0-.51074.1084-.94629.3252-1.30664.21631-.36035.52832-.63477.93652-.82324.40625-.18848.90234-.2832,1.48633-.2832.12891,0,.26172.00586.39844.01562.13672.01172.26758.02734.39258.04883s.22461.04297.30273.06445h2.44531v.76562l-1.26172.19238c.125.16309.22461.35645.30273.5791.07617.22363.11523.46777.11523.73438,0,.71973-.24609,1.29004-.73633,1.70801-.49219.41797-1.16992.62695-2.03711.62695-.20117-.00391-.4043-.02148-.61133-.05078-.18359.10645-.32422.22363-.41797.35059-.09375.12598-.14062.27051-.14062.43359,0,.125.04102.22559.125.30273s.20508.13379.36328.1709c.1582.03613.35156.05469.58008.05469h1.23438c.77148,0,1.36328.16309,1.77539.48828.41211.32617.61914.80273.61914,1.42871,0,.79395-.32617,1.4043-.97852,1.83398-.65234.42871-1.5918.64355-2.81836.64355Zm.04492-.94629c.55273,0,1.01562-.05566,1.38672-.16699.37109-.1123.65039-.27051.83984-.47656.1875-.20605.2832-.4502.2832-.7334,0-.25684-.0625-.45312-.18359-.58887-.12305-.13477-.30469-.22559-.54492-.27344-.24023-.04688-.53516-.07031-.88672-.07031h-1.17188c-.29883,0-.56055.04688-.78516.1416-.22266.09375-.39648.23047-.52051.4082s-.18652.39746-.18652.65918c0,.35645.15332.62891.45996.81738.30762.18848.74316.2832,1.30957.2832Zm.2832-5.59082c.47656,0,.83203-.12598,1.06836-.37695s.35352-.61035.35352-1.07715c0-.50195-.12109-.87988-.36133-1.13281s-.5957-.37988-1.06641-.37988c-.45898,0-.81055.12988-1.05273.38965s-.36328.6377-.36328,1.13574c0,.45898.12109.81348.36719,1.06445.24414.25098.5957.37695,1.05469.37695Z" style="stroke-width: 0px;"/>
    <path d="m94.43819,40.57455c.12793,0,.26758.00684.41797.02246.15039.01465.27832.0332.38574.05469l-.13477,1.20312c-.10352-.02637-.22266-.04785-.35742-.06445-.13477-.01758-.26074-.02539-.37598-.02539-.27441,0-.53613.05078-.78516.1543-.24902.10254-.46777.25195-.65625.44727-.18848.19434-.33691.43262-.44434.71387s-.16016.60156-.16016.96191v3.75098h-1.2998v-7.09082h1.04199l.1543,1.28125h.05762c.14648-.25781.32324-.49414.53125-.70801.20801-.21484.44824-.38477.7207-.51172s.57324-.18945.9043-.18945Z" style="stroke-width: 0px;"/>
    <path d="m99.34151,40.57455c.61719,0,1.14746.13184,1.58887.39551.44238.26367.78125.63574,1.0166,1.11621.23633.48047.35449,1.04688.35449,1.69824v.7334h-4.81348c.01367.75977.20801,1.3418.58594,1.74707.37695.40527.90723.6084,1.58887.6084.45117,0,.85156-.04297,1.20312-.12891.35254-.08594.7168-.21191,1.09375-.37988v1.08789c-.35547.16309-.71289.28223-1.07129.35645-.35742.0752-.78516.11328-1.2832.11328-.68652,0-1.28809-.1377-1.80469-.41211s-.91895-.68066-1.20605-1.21875c-.28809-.53906-.43164-1.20215-.43164-1.99219,0-.78027.13086-1.44824.39258-2.00391s.63086-.98145,1.10645-1.27734c.47656-.2959,1.03613-.44336,1.67969-.44336Zm-.00684,1.00293c-.52344,0-.94336.1709-1.26074.51172s-.50391.8291-.55957,1.46387h3.4873c-.00488-.39062-.06641-.7334-.18652-1.0293s-.30176-.52734-.54395-.69531c-.24219-.16699-.55469-.25098-.93652-.25098Z" style="stroke-width: 0px;"/>
    <path d="m106.83663,40.57455c.61719,0,1.14746.13184,1.58887.39551.44238.26367.78125.63574,1.0166,1.11621.23633.48047.35449,1.04688.35449,1.69824v.7334h-4.81348c.01367.75977.20801,1.3418.58594,1.74707.37695.40527.90723.6084,1.58887.6084.45117,0,.85156-.04297,1.20312-.12891.35254-.08594.7168-.21191,1.09375-.37988v1.08789c-.35547.16309-.71289.28223-1.07129.35645-.35742.0752-.78516.11328-1.2832.11328-.68652,0-1.28809-.1377-1.80469-.41211s-.91895-.68066-1.20605-1.21875c-.28809-.53906-.43164-1.20215-.43164-1.99219,0-.78027.13086-1.44824.39258-2.00391s.63086-.98145,1.10645-1.27734c.47656-.2959,1.03613-.44336,1.67969-.44336Zm-.00684,1.00293c-.52344,0-.94336.1709-1.26074.51172s-.50391.8291-.55957,1.46387h3.4873c-.00488-.39062-.06641-.7334-.18652-1.0293s-.30176-.52734-.54395-.69531c-.24219-.16699-.55469-.25098-.93652-.25098Z" style="stroke-width: 0px;"/>
    <path d="m115.63253,38.01987c.20605,0,.38281.06055.53027.17969.14844.12012.22266.31543.22266.58594s-.07422.4668-.22266.58887c-.14746.12207-.32422.18359-.53027.18359-.21094,0-.3877-.06152-.53125-.18359s-.21582-.31836-.21582-.58887.07227-.46582.21582-.58594c.14355-.11914.32031-.17969.53125-.17969Zm.63672,2.68262v7.09082h-1.29297v-7.09082h1.29297Z" style="stroke-width: 0px;"/>
    <path d="m122.00167,40.57455c.81934,0,1.44922.20508,1.88867.61719s.65918,1.07227.65918,1.98145v4.62012h-1.28027v-4.44629c0-.56641-.12402-.99121-.37305-1.27734-.24902-.28516-.63086-.42773-1.14551-.42773-.7334,0-1.24707.2168-1.54102.65039-.29395.43262-.44043,1.06152-.44043,1.88477v3.61621h-1.29297v-7.09082h1.02246l.18652.99805h.07129c.14941-.24902.34082-.45703.57227-.62402.23145-.16797.49023-.29297.77539-.37695s.58496-.125.89746-.125Z" style="stroke-width: 0px;"/>
    <path d="m137.84249,43.00033c0,1.05859-.19531,1.94336-.58496,2.65332-.39062.70996-.95605,1.24414-1.69531,1.60254-.74023.3584-1.6377.53711-2.69336.53711h-2.58008v-9.40723h2.87012c.96094,0,1.79102.17578,2.49023.52441.69922.35059,1.23926.86719,1.62109,1.55078.38184.68457.57227,1.53027.57227,2.53906Zm-1.38281.03809c0-.80664-.13086-1.4707-.39258-1.99414s-.64551-.91309-1.15137-1.16797c-.50684-.25586-1.12598-.38281-1.86035-.38281h-1.44727v7.18066h1.21582c1.21387,0,2.12305-.30469,2.72852-.91406.60449-.60938.90723-1.5166.90723-2.72168Z" style="stroke-width: 0px;"/>
    <path d="m142.45675,40.58041c.875,0,1.5293.19434,1.96289.58203.43262.38867.64941,1.00098.64941,1.83789v4.79297h-.92676l-.25098-1.0293h-.05078c-.19824.25684-.40332.47168-.61816.64355-.21484.1709-.46191.2998-.74316.38574s-.62305.12891-1.02637.12891c-.42871,0-.81055-.07715-1.14551-.23145-.33398-.15527-.59668-.3877-.78809-.69824-.19043-.31152-.28613-.70703-.28613-1.1875,0-.7207.27637-1.26758.83008-1.64062s1.3916-.57715,2.51562-.61133l1.22266-.05176v-.39844c0-.55371-.12305-.94336-.37012-1.1709-.24609-.22754-.59082-.34082-1.03223-.34082-.36523,0-.71484.05176-1.04883.15723-.33496.10547-.65625.23047-.96484.37598l-.41211-.93848c.33398-.17188.71484-.31543,1.1416-.43164.42676-.11523.87402-.17383,1.3418-.17383Zm1.33203,3.77051l-.99121.04492c-.81934.03027-1.39453.16699-1.72754.40918-.33203.24219-.49805.58008-.49805,1.0127,0,.37793.11328.6543.34082.83008s.52734.26367.90039.26367c.5752,0,1.04785-.16113,1.41895-.48535s.55664-.80371.55664-1.43848v-.63672Z" style="stroke-width: 0px;"/>
    <path d="m149.69503,46.87338c.18359,0,.37109-.0166.55957-.04883s.35156-.07324.48926-.125v.99121c-.14648.06348-.34082.11816-.58301.16406-.24219.04492-.49023.06738-.74316.06738-.38574,0-.73535-.06641-1.04883-.19922-.3125-.13379-.5625-.36035-.74902-.68262-.18652-.32129-.28027-.76758-.28027-1.33789v-4.00195h-.98438v-.59863l1.0293-.47656.45703-1.53125h.79785v1.6084h2.05273v.99805h-2.05273v3.98242c0,.39844.0957.69727.28613.89453.19141.19727.44727.2959.76953.2959Z" style="stroke-width: 0px;"/>
    <path d="m154.89327,40.58041c.875,0,1.5293.19434,1.96289.58203.43262.38867.64941,1.00098.64941,1.83789v4.79297h-.92676l-.25098-1.0293h-.05078c-.19824.25684-.40332.47168-.61816.64355-.21484.1709-.46191.2998-.74316.38574s-.62305.12891-1.02637.12891c-.42871,0-.81055-.07715-1.14551-.23145-.33398-.15527-.59668-.3877-.78809-.69824-.19043-.31152-.28613-.70703-.28613-1.1875,0-.7207.27637-1.26758.83008-1.64062s1.3916-.57715,2.51562-.61133l1.22266-.05176v-.39844c0-.55371-.12305-.94336-.37012-1.1709-.24609-.22754-.59082-.34082-1.03223-.34082-.36523,0-.71484.05176-1.04883.15723-.33496.10547-.65625.23047-.96484.37598l-.41211-.93848c.33398-.17188.71484-.31543,1.1416-.43164.42676-.11523.87402-.17383,1.3418-.17383Zm1.33203,3.77051l-.99121.04492c-.81934.03027-1.39453.16699-1.72754.40918-.33203.24219-.49805.58008-.49805,1.0127,0,.37793.11328.6543.34082.83008s.52734.26367.90039.26367c.5752,0,1.04785-.16113,1.41895-.48535s.55664-.80371.55664-1.43848v-.63672Z" style="stroke-width: 0px;"/>
    <path d="m168.61788,45.26498c0,.55762-.13867,1.03418-.41504,1.43164-.27637.39648-.66602.7002-1.16797.91016s-1.09766.31543-1.78906.31543c-.34668,0-.67871-.01855-.99414-.05469-.31445-.03711-.60742-.08887-.87793-.1582-.27051-.06836-.51465-.1543-.7334-.25684v-1.24805c.35645.14551.76758.28125,1.23535.4082s.9502.18945,1.44727.18945c.43359,0,.79688-.05859,1.09082-.17676s.51562-.28418.66602-.49805c.15039-.21484.22559-.47266.22559-.77246s-.07324-.55273-.21875-.75586c-.14648-.2041-.37695-.3916-.69238-.56348-.31445-.1709-.72754-.35352-1.23828-.54688-.35547-.12891-.67969-.27539-.97168-.44043-.29102-.16504-.54297-.35449-.75586-.56934-.21191-.21484-.37598-.4668-.49219-.75586-.11523-.29004-.17383-.62305-.17383-1.00098,0-.51855.12793-.96289.38281-1.33203.25586-.36816.6123-.65039,1.07129-.8457s.99121-.29297,1.5957-.29297c.49805,0,.96191.0498,1.39355.14844.43066.09863.8418.2334,1.23145.40527l-.41797,1.09375c-.36426-.15039-.73145-.27246-1.10059-.36719-.36816-.09375-.75-.1416-1.14453-.1416-.36523,0-.67285.05371-.92383.16113s-.44141.25977-.57227.45703-.19629.43066-.19629.70117c0,.30469.06836.55762.20605.75879.13672.20215.35352.38477.64941.54688.2959.16309.68262.33691,1.1582.52148.53613.20605.99219.4248,1.36719.65625s.66211.51074.85938.83691.2959.7373.2959,1.23535Z" style="stroke-width: 0px;"/>
    <path d="m173.16573,47.92221c-.65137,0-1.22168-.13086-1.71094-.39258s-.86816-.66211-1.13574-1.2002c-.26855-.53809-.40234-1.21875-.40234-2.04297,0-.85742.14355-1.56055.43164-2.10742.28711-.54688.68457-.95117,1.19336-1.21191.50781-.26172,1.09082-.39258,1.74707-.39258.38574,0,.74707.03809,1.08398.11523s.61816.17383.8457.29004l-.38574,1.04883c-.24023-.09473-.49902-.17871-.77539-.25098-.27637-.07324-.54004-.10938-.78809-.10938-.45508,0-.83105.09961-1.12891.29883-.29883.19922-.52246.49219-.67285.87793-.15039.38672-.22559.8623-.22559,1.42871,0,.54883.07422,1.01367.22266,1.39258.14746.37988.36621.66895.65625.86621.28906.19727.65039.2959,1.08398.2959.38184,0,.72461-.04297,1.0293-.12891s.58594-.19531.84277-.32812v1.13867c-.24902.1377-.52344.24023-.82324.30859-.30078.06934-.66309.10352-1.08789.10352Z" style="stroke-width: 0px;"/>
    <path d="m177.40011,38.01987c.20605,0,.38281.06055.53027.17969.14844.12012.22266.31543.22266.58594s-.07422.4668-.22266.58887c-.14746.12207-.32422.18359-.53027.18359-.21094,0-.3877-.06152-.53125-.18359s-.21582-.31836-.21582-.58887.07227-.46582.21582-.58594c.14355-.11914.32031-.17969.53125-.17969Zm.63672,2.68262v7.09082h-1.29297v-7.09082h1.29297Z" style="stroke-width: 0px;"/>
    <path d="m183.02413,40.57455c.61719,0,1.14746.13184,1.58887.39551.44238.26367.78125.63574,1.0166,1.11621.23633.48047.35449,1.04688.35449,1.69824v.7334h-4.81348c.01367.75977.20801,1.3418.58594,1.74707.37695.40527.90723.6084,1.58887.6084.45117,0,.85156-.04297,1.20312-.12891.35254-.08594.7168-.21191,1.09375-.37988v1.08789c-.35547.16309-.71289.28223-1.07129.35645-.35742.0752-.78516.11328-1.2832.11328-.68652,0-1.28809-.1377-1.80469-.41211s-.91895-.68066-1.20605-1.21875c-.28809-.53906-.43164-1.20215-.43164-1.99219,0-.78027.13086-1.44824.39258-2.00391s.63086-.98145,1.10645-1.27734c.47656-.2959,1.03613-.44336,1.67969-.44336Zm-.00684,1.00293c-.52344,0-.94336.1709-1.26074.51172s-.50391.8291-.55957,1.46387h3.4873c-.00488-.39062-.06641-.7334-.18652-1.0293s-.30176-.52734-.54395-.69531c-.24219-.16699-.55469-.25098-.93652-.25098Z" style="stroke-width: 0px;"/>
    <path d="m191.26534,40.57455c.81934,0,1.44922.20508,1.88867.61719s.65918,1.07227.65918,1.98145v4.62012h-1.28027v-4.44629c0-.56641-.12402-.99121-.37305-1.27734-.24902-.28516-.63086-.42773-1.14551-.42773-.7334,0-1.24707.2168-1.54102.65039-.29395.43262-.44043,1.06152-.44043,1.88477v3.61621h-1.29297v-7.09082h1.02246l.18652.99805h.07129c.14941-.24902.34082-.45703.57227-.62402.23145-.16797.49023-.29297.77539-.37695s.58496-.125.89746-.125Z" style="stroke-width: 0px;"/>
    <path d="m198.81905,47.92221c-.65137,0-1.22168-.13086-1.71094-.39258s-.86816-.66211-1.13574-1.2002c-.26855-.53809-.40234-1.21875-.40234-2.04297,0-.85742.14355-1.56055.43164-2.10742.28711-.54688.68457-.95117,1.19336-1.21191.50781-.26172,1.09082-.39258,1.74707-.39258.38574,0,.74707.03809,1.08398.11523s.61816.17383.8457.29004l-.38574,1.04883c-.24023-.09473-.49902-.17871-.77539-.25098-.27637-.07324-.54004-.10938-.78809-.10938-.45508,0-.83105.09961-1.12891.29883-.29883.19922-.52246.49219-.67285.87793-.15039.38672-.22559.8623-.22559,1.42871,0,.54883.07422,1.01367.22266,1.39258.14746.37988.36621.66895.65625.86621.28906.19727.65039.2959,1.08398.2959.38184,0,.72461-.04297,1.0293-.12891s.58594-.19531.84277-.32812v1.13867c-.24902.1377-.52344.24023-.82324.30859-.30078.06934-.66309.10352-1.08789.10352Z" style="stroke-width: 0px;"/>
    <path d="m205.17647,40.57455c.61719,0,1.14746.13184,1.58887.39551.44238.26367.78125.63574,1.0166,1.11621.23633.48047.35449,1.04688.35449,1.69824v.7334h-4.81348c.01367.75977.20801,1.3418.58594,1.74707.37695.40527.90723.6084,1.58887.6084.45117,0,.85156-.04297,1.20312-.12891.35254-.08594.7168-.21191,1.09375-.37988v1.08789c-.35547.16309-.71289.28223-1.07129.35645-.35742.0752-.78516.11328-1.2832.11328-.68652,0-1.28809-.1377-1.80469-.41211s-.91895-.68066-1.20605-1.21875c-.28809-.53906-.43164-1.20215-.43164-1.99219,0-.78027.13086-1.44824.39258-2.00391s.63086-.98145,1.10645-1.27734c.47656-.2959,1.03613-.44336,1.67969-.44336Zm-.00684,1.00293c-.52344,0-.94336.1709-1.26074.51172s-.50391.8291-.55957,1.46387h3.4873c-.00488-.39062-.06641-.7334-.18652-1.0293s-.30176-.52734-.54395-.69531c-.24219-.16699-.55469-.25098-.93652-.25098Z" style="stroke-width: 0px;"/>
    <path d="m216.03097,40.58041c.875,0,1.5293.19434,1.96289.58203.43262.38867.64941,1.00098.64941,1.83789v4.79297h-.92676l-.25098-1.0293h-.05078c-.19824.25684-.40332.47168-.61816.64355-.21484.1709-.46191.2998-.74316.38574s-.62305.12891-1.02637.12891c-.42871,0-.81055-.07715-1.14551-.23145-.33398-.15527-.59668-.3877-.78809-.69824-.19043-.31152-.28613-.70703-.28613-1.1875,0-.7207.27637-1.26758.83008-1.64062s1.3916-.57715,2.51562-.61133l1.22266-.05176v-.39844c0-.55371-.12305-.94336-.37012-1.1709-.24609-.22754-.59082-.34082-1.03223-.34082-.36523,0-.71484.05176-1.04883.15723-.33496.10547-.65625.23047-.96484.37598l-.41211-.93848c.33398-.17188.71484-.31543,1.1416-.43164.42676-.11523.87402-.17383,1.3418-.17383Zm1.33203,3.77051l-.99121.04492c-.81934.03027-1.39453.16699-1.72754.40918-.33203.24219-.49805.58008-.49805,1.0127,0,.37793.11328.6543.34082.83008s.52734.26367.90039.26367c.5752,0,1.04785-.16113,1.41895-.48535s.55664-.80371.55664-1.43848v-.63672Z" style="stroke-width: 0px;"/>
    <path d="m224.32393,40.57455c.81934,0,1.44922.20508,1.88867.61719s.65918,1.07227.65918,1.98145v4.62012h-1.28027v-4.44629c0-.56641-.12402-.99121-.37305-1.27734-.24902-.28516-.63086-.42773-1.14551-.42773-.7334,0-1.24707.2168-1.54102.65039-.29395.43262-.44043,1.06152-.44043,1.88477v3.61621h-1.29297v-7.09082h1.02246l.18652.99805h.07129c.14941-.24902.34082-.45703.57227-.62402.23145-.16797.49023-.29297.77539-.37695s.58496-.125.89746-.125Z" style="stroke-width: 0px;"/>
    <path d="m231.47921,47.92221c-.86621,0-1.55859-.30664-2.0752-.91992s-.77539-1.52344-.77539-2.72852c0-1.21777.2627-2.13965.78809-2.76367s1.22363-.93555,2.09473-.93555c.36426,0,.68359.04883.95898.14746.27441.09863.51074.22949.71094.39258.19922.16309.36523.34766.49805.55371h.07715c-.02148-.13281-.04297-.31934-.06445-.56055-.02148-.23926-.03223-.4502-.03223-.62988v-2.69629h1.29395v10.01172h-1.02344l-.21191-.98438h-.05859c-.12793.20605-.29199.39355-.49219.5625-.19922.16992-.4375.30371-.71387.40234s-.60156.14844-.97461.14844Zm.30273-1.05566c.69824,0,1.19336-.20117,1.48242-.60449.29004-.40332.43652-1.00195.44141-1.79492v-.2002c0-.84473-.13867-1.49316-.41504-1.94629-.27734-.45215-.78418-.67871-1.52246-.67871-.60059,0-1.05273.23535-1.35742.70508s-.45703,1.12012-.45703,1.95215c0,.82422.15234,1.45801.45703,1.90137.30469.44434.76172.66602,1.37109.66602Z" style="stroke-width: 0px;"/>
    <path d="m246.61202,47.7933l-1.04199-2.79883h-3.68652l-1.03027,2.79883h-1.37012l3.58984-9.44531h1.35156l3.57129,9.44531h-1.38379Zm-1.40918-3.94434l-.99023-2.77246c-.03027-.09473-.07617-.23633-.13867-.4248-.0625-.18945-.12402-.38379-.18652-.58594-.0625-.20117-.1123-.36914-.15137-.50195-.04297.17578-.0918.36133-.14746.55664-.05664.19531-.11133.37793-.16406.54688-.05371.16992-.09766.30566-.13281.40918l-1.00293,2.77246h2.91406Z" style="stroke-width: 0px;"/>
    <path d="m252.59639,40.57455c.8623,0,1.55176.30566,2.06836.91602.5166.61133.77539,1.52441.77539,2.73828,0,.80664-.11914,1.4834-.35742,2.03027s-.57227.96094-1.00391,1.24121c-.43066.28125-.93555.42188-1.51465.42188-.36523,0-.68457-.04883-.95898-.14453-.27441-.09668-.50977-.22559-.7041-.38672-.19531-.16113-.35938-.33301-.49219-.51758h-.08398c.0166.16699.03516.36133.05469.58203s.0293.41895.0293.5957v2.89453h-1.2998v-10.24316h1.06152l.17383,1.0166h.06445c.13281-.20996.29688-.40137.49219-.5752.19434-.17383.43164-.3125.71094-.41504.27832-.10352.60645-.1543.98438-.1543Zm-.2959,1.06738c-.45508,0-.81836.08984-1.09082.26758s-.47168.44238-.59863.79395c-.12695.35254-.19434.79395-.20215,1.32617v.20605c0,.56543.05957,1.04297.17969,1.43066.12012.38867.31934.68457.59863.88867.27832.20312.6543.30566,1.12598.30566.40332,0,.73828-.10938,1.00684-.32812.26758-.21875.46777-.52832.59863-.92676.13086-.39941.19629-.8623.19629-1.38965,0-.80273-.14844-1.43164-.44434-1.88867s-.75293-.68555-1.37012-.68555Z" style="stroke-width: 0px;"/>
    <path d="m260.72921,40.57455c.8623,0,1.55176.30566,2.06836.91602.5166.61133.77539,1.52441.77539,2.73828,0,.80664-.11914,1.4834-.35742,2.03027s-.57227.96094-1.00391,1.24121c-.43066.28125-.93555.42188-1.51465.42188-.36523,0-.68457-.04883-.95898-.14453-.27441-.09668-.50977-.22559-.7041-.38672-.19531-.16113-.35938-.33301-.49219-.51758h-.08398c.0166.16699.03516.36133.05469.58203s.0293.41895.0293.5957v2.89453h-1.2998v-10.24316h1.06152l.17383,1.0166h.06445c.13281-.20996.29688-.40137.49219-.5752.19434-.17383.43164-.3125.71094-.41504.27832-.10352.60645-.1543.98438-.1543Zm-.2959,1.06738c-.45508,0-.81836.08984-1.09082.26758s-.47168.44238-.59863.79395c-.12695.35254-.19434.79395-.20215,1.32617v.20605c0,.56543.05957,1.04297.17969,1.43066.12012.38867.31934.68457.59863.88867.27832.20312.6543.30566,1.12598.30566.40332,0,.73828-.10938,1.00684-.32812.26758-.21875.46777-.52832.59863-.92676.13086-.39941.19629-.8623.19629-1.38965,0-.80273-.14844-1.43164-.44434-1.88867s-.75293-.68555-1.37012-.68555Z" style="stroke-width: 0px;"/>
    <path d="m266.67452,47.7933h-1.2998v-10.01172h1.2998v10.01172Z" style="stroke-width: 0px;"/>
    <path d="m269.53097,38.01987c.20605,0,.38281.06055.53027.17969.14844.12012.22266.31543.22266.58594s-.07422.4668-.22266.58887c-.14746.12207-.32422.18359-.53027.18359-.21094,0-.3877-.06152-.53125-.18359s-.21582-.31836-.21582-.58887.07227-.46582.21582-.58594c.14355-.11914.32031-.17969.53125-.17969Zm.63672,2.68262v7.09082h-1.29297v-7.09082h1.29297Z" style="stroke-width: 0px;"/>
    <path d="m275.22432,47.92221c-.65137,0-1.22168-.13086-1.71094-.39258s-.86816-.66211-1.13574-1.2002c-.26855-.53809-.40234-1.21875-.40234-2.04297,0-.85742.14355-1.56055.43164-2.10742.28711-.54688.68457-.95117,1.19336-1.21191.50781-.26172,1.09082-.39258,1.74707-.39258.38574,0,.74707.03809,1.08398.11523s.61816.17383.8457.29004l-.38574,1.04883c-.24023-.09473-.49902-.17871-.77539-.25098-.27637-.07324-.54004-.10938-.78809-.10938-.45508,0-.83105.09961-1.12891.29883-.29883.19922-.52246.49219-.67285.87793-.15039.38672-.22559.8623-.22559,1.42871,0,.54883.07422,1.01367.22266,1.39258.14746.37988.36621.66895.65625.86621.28906.19727.65039.2959,1.08398.2959.38184,0,.72461-.04297,1.0293-.12891s.58594-.19531.84277-.32812v1.13867c-.24902.1377-.52344.24023-.82324.30859-.30078.06934-.66309.10352-1.08789.10352Z" style="stroke-width: 0px;"/>
    <path d="m281.51729,40.58041c.875,0,1.5293.19434,1.96289.58203.43262.38867.64941,1.00098.64941,1.83789v4.79297h-.92676l-.25098-1.0293h-.05078c-.19824.25684-.40332.47168-.61816.64355-.21484.1709-.46191.2998-.74316.38574s-.62305.12891-1.02637.12891c-.42871,0-.81055-.07715-1.14551-.23145-.33398-.15527-.59668-.3877-.78809-.69824-.19043-.31152-.28613-.70703-.28613-1.1875,0-.7207.27637-1.26758.83008-1.64062s1.3916-.57715,2.51562-.61133l1.22266-.05176v-.39844c0-.55371-.12305-.94336-.37012-1.1709-.24609-.22754-.59082-.34082-1.03223-.34082-.36523,0-.71484.05176-1.04883.15723-.33496.10547-.65625.23047-.96484.37598l-.41211-.93848c.33398-.17188.71484-.31543,1.1416-.43164.42676-.11523.87402-.17383,1.3418-.17383Zm1.33203,3.77051l-.99121.04492c-.81934.03027-1.39453.16699-1.72754.40918-.33203.24219-.49805.58008-.49805,1.0127,0,.37793.11328.6543.34082.83008s.52734.26367.90039.26367c.5752,0,1.04785-.16113,1.41895-.48535s.55664-.80371.55664-1.43848v-.63672Z" style="stroke-width: 0px;"/>
    <path d="m288.75655,46.87338c.18359,0,.37109-.0166.55957-.04883s.35156-.07324.48926-.125v.99121c-.14648.06348-.34082.11816-.58301.16406-.24219.04492-.49023.06738-.74316.06738-.38574,0-.73535-.06641-1.04883-.19922-.3125-.13379-.5625-.36035-.74902-.68262-.18652-.32129-.28027-.76758-.28027-1.33789v-4.00195h-.98438v-.59863l1.0293-.47656.45703-1.53125h.79785v1.6084h2.05273v.99805h-2.05273v3.98242c0,.39844.0957.69727.28613.89453.19141.19727.44727.2959.76953.2959Z" style="stroke-width: 0px;"/>
    <path d="m291.8962,38.01987c.20605,0,.38281.06055.53027.17969.14844.12012.22266.31543.22266.58594s-.07422.4668-.22266.58887c-.14746.12207-.32422.18359-.53027.18359-.21094,0-.3877-.06152-.53125-.18359s-.21582-.31836-.21582-.58887.07227-.46582.21582-.58594c.14355-.11914.32031-.17969.53125-.17969Zm.63672,2.68262v7.09082h-1.29297v-7.09082h1.29297Z" style="stroke-width: 0px;"/>
    <path d="m300.93526,44.23569c0,.58301-.07617,1.10254-.22754,1.55957-.15234.45703-.37402.84277-.66309,1.1582-.29004.31543-.6377.55566-1.0459.7207-.40723.16504-.86816.24805-1.38281.24805-.48047,0-.92188-.08301-1.32227-.24805-.40137-.16504-.74805-.40527-1.03906-.7207-.29199-.31543-.51758-.70117-.67578-1.1582-.15918-.45703-.23828-.97656-.23828-1.55957,0-.77637.13281-1.43848.39941-1.98535.26562-.54688.64648-.96289,1.1416-1.24805s1.08594-.42773,1.77246-.42773c.65234,0,1.22461.14355,1.71777.43066s.87793.70312,1.15234,1.24805.41113,1.20605.41113,1.98242Zm-5.26953,0c0,.54395.07031,1.0127.20996,1.40527.13867.39258.35352.69434.64258.9043.29004.20996.66406.31543,1.12305.31543.4502,0,.82129-.10547,1.11328-.31543s.50586-.51172.64355-.9043c.13672-.39258.20605-.86133.20605-1.40527,0-.54102-.06934-1.00391-.20605-1.39062-.1377-.38574-.35059-.68164-.64062-.8877-.28906-.20605-.66602-.30859-1.12891-.30859-.67773,0-1.17383.22656-1.48926.67871s-.47363,1.08887-.47363,1.9082Z" style="stroke-width: 0px;"/>
    <path d="m306.25069,40.57455c.81934,0,1.44922.20508,1.88867.61719s.65918,1.07227.65918,1.98145v4.62012h-1.28027v-4.44629c0-.56641-.12402-.99121-.37305-1.27734-.24902-.28516-.63086-.42773-1.14551-.42773-.7334,0-1.24707.2168-1.54102.65039-.29395.43262-.44043,1.06152-.44043,1.88477v3.61621h-1.29297v-7.09082h1.02246l.18652.99805h.07129c.14941-.24902.34082-.45703.57227-.62402.23145-.16797.49023-.29297.77539-.37695s.58496-.125.89746-.125Z" style="stroke-width: 0px;"/>
    <path d="m315.63155,45.81186c0,.45898-.11328.8457-.33789,1.16113-.22559.31543-.55273.55273-.98145.71094s-.94336.23828-1.54395.23828c-.49805,0-.92676-.03809-1.28711-.11328-.36035-.07422-.68652-.18262-.97852-.32422v-1.14551c.31348.15039.67578.2832,1.08789.39844.41211.11621.81445.17383,1.20996.17383.55273,0,.95312-.08789,1.19922-.26367.24707-.17578.37012-.41406.37012-.71387,0-.17578-.04883-.33105-.14746-.4668-.09863-.13477-.27148-.26953-.51855-.40527-.24609-.13477-.59961-.29004-1.05859-.4668-.4502-.17578-.83496-.35156-1.1543-.52734s-.56348-.3877-.73047-.63672-.25098-.57031-.25098-.96484c0-.61328.24512-1.08203.73633-1.40625s1.14062-.48535,1.94629-.48535c.42969,0,.83398.04297,1.21289.12793.37988.08594.74316.20605,1.09082.36035l-.41797.99805c-.30859-.13379-.62598-.24414-.95215-.33203s-.6582-.13184-.99707-.13184c-.44238,0-.78027.07129-1.01367.21289-.23438.1416-.35059.33594-.35059.58496,0,.19336.05469.35449.16406.48242.10938.12891.29297.25488.5498.37695.25781.12207.60449.2666,1.04199.43359.43359.16309.80762.33301,1.12305.50879s.55859.39062.73047.64355.25781.57715.25781.97168Z" style="stroke-width: 0px;"/>
  </g>
</svg>